<svg width="100" height="100" viewBox="0 0 100 100" fill="none" xmlns="http://www.w3.org/2000/svg">
<path d="M46.3153 49.0822C44.9909 47.9422 42.9922 48.0903 41.8511 49.4133L37.2481 54.7486L35.1926 53.1235C33.8222 52.0397 31.8312 52.271 30.7461 53.6402C29.6611 55.0094 29.8926 56.9978 31.2634 58.0818L35.6994 61.5893C36.2798 62.0482 36.973 62.2721 37.6625 62.2721C38.1556 62.2721 38.6467 62.1574 39.0928 61.9322C39.4525 61.7507 39.7831 61.4972 40.0617 61.1743L46.6465 53.5418C47.7881 52.2188 47.6395 50.2222 46.3153 49.0822Z" stroke="#6C8DAB" stroke-width="2" stroke-miterlimit="10" stroke-linecap="round" stroke-linejoin="round"/>
<path d="M65.7558 58.0291V52.5607L61.7773 50.4854C61.1691 47.5629 60.0175 44.8393 58.433 42.4248L59.7778 38.1448L55.9067 34.2779L51.6219 35.6213C49.2045 34.0385 46.478 32.8884 43.5522 32.2807L41.4745 28.3066H36L33.9223 32.2807C30.9966 32.8884 28.27 34.0385 25.8527 35.6213L21.5678 34.2779L17.6967 38.1448L19.0416 42.4248C17.457 44.8393 16.3055 47.5629 15.6972 50.4854L11.7188 52.5607V58.0291L15.6972 60.1045C16.3055 63.027 17.457 65.7505 19.0416 68.1651L17.6967 72.4451L21.5678 76.312L25.8527 74.9685C28.27 76.5513 30.9966 77.7015 33.9223 78.3091L36 82.2832H41.4747L43.5523 78.3091C46.4781 77.7015 49.2047 76.5513 51.622 74.9685L55.9069 76.312L59.778 72.4451L58.4331 68.1651C60.0176 65.7505 61.1692 63.027 61.7775 60.1045L65.7558 58.0291Z" stroke="#6C8DAB" stroke-width="2" stroke-miterlimit="10" stroke-linecap="round" stroke-linejoin="round"/>
<path d="M38.74 71.4992C47.6918 71.4992 54.9487 64.2439 54.9487 55.294C54.9487 46.3442 47.6918 39.0889 38.74 39.0889C29.7882 39.0889 22.5312 46.3442 22.5312 55.294C22.5312 64.2439 29.7882 71.4992 38.74 71.4992Z" stroke="#6C8DAB" stroke-width="2" stroke-miterlimit="10" stroke-linecap="round" stroke-linejoin="round"/>
<path d="M22.0547 24.7734C31.0958 15.7344 45.7542 15.7344 54.7953 24.7734" stroke="#6C8DAB" stroke-width="2" stroke-miterlimit="10" stroke-linecap="round" stroke-linejoin="round"/>
<path d="M56.0991 22.1328V26.0748H52.1562" stroke="#6C8DAB" stroke-width="2" stroke-miterlimit="10" stroke-linecap="round" stroke-linejoin="round"/>
<path d="M86.3934 27.8571C86.1228 26.7767 85.6961 25.7482 85.1211 24.7909L85.7584 22.7629L83.2278 20.2353L81.1977 20.8718C80.2392 20.2975 79.2097 19.8711 78.1278 19.6009L77.1433 17.7178H73.5648L72.5803 19.6009C71.4984 19.8712 70.4688 20.2975 69.5106 20.8718L67.4803 20.2353L64.9498 22.7629L65.587 24.7909C65.012 25.7481 64.5855 26.7765 64.3148 27.8573L62.4297 28.8407V32.4153L64.3148 33.3986C64.5855 34.4793 65.0123 35.5076 65.587 36.4648L64.9498 38.4929L67.4803 41.0206L69.5106 40.384C70.4689 40.9584 71.4983 41.3846 72.5803 41.655L73.5648 43.5381H77.1433L78.1278 41.655C79.2095 41.3846 80.2394 40.9584 81.1977 40.384L83.2278 41.0206L85.7584 38.4929L85.1211 36.4648C85.6961 35.5073 86.1228 34.479 86.3934 33.3986L88.2786 32.4153V28.8406L86.3934 27.8571Z" stroke="#6C8DAB" stroke-width="2" stroke-miterlimit="10" stroke-linecap="round" stroke-linejoin="round"/>
<path d="M75.3519 35.4242C78.0013 35.4242 80.1491 33.2769 80.1491 30.6281C80.1491 27.9793 78.0013 25.832 75.3519 25.832C72.7025 25.832 70.5547 27.9793 70.5547 30.6281C70.5547 33.2769 72.7025 35.4242 75.3519 35.4242Z" stroke="#6C8DAB" stroke-width="2" stroke-miterlimit="10" stroke-linecap="round" stroke-linejoin="round"/>
</svg>
