<svg width="100" height="100" viewBox="0 0 100 100" fill="none" xmlns="http://www.w3.org/2000/svg">
<mask id="mask0_2901_10808" style="mask-type:luminance" maskUnits="userSpaceOnUse" x="10" y="10" width="80" height="80">
<path d="M10 10H90V90H10V10Z" fill="white"/>
</mask>
<g mask="url(#mask0_2901_10808)">
<path d="M88.8317 56.1096C88.8317 71.0266 76.7391 83.1191 61.8222 83.1191C46.9052 83.1191 34.8125 71.0266 34.8125 56.1096C34.8125 41.1926 46.9052 29.1001 61.8222 29.1001C76.7391 29.1001 88.8317 41.1926 88.8317 56.1096Z" stroke="#6C8DAB" stroke-width="2" stroke-miterlimit="10" stroke-linecap="round" stroke-linejoin="round"/>
<path d="M78.5 69.5C75 74 66.9103 77.5488 61.8208 77.5488C49.9808 77.5488 40.3828 67.9507 40.3828 56.1107C40.3828 51.0352 44.5 42 49 39" stroke="#6C8DAB" stroke-width="2" stroke-miterlimit="10" stroke-linecap="round" stroke-linejoin="round"/>
<path d="M49.0781 38.8723C52.6412 36.2328 57.0514 34.6718 61.8262 34.6718C73.6661 34.6718 83.2642 44.27 83.2642 56.11C83.2642 60.8726 81.7112 65.2726 79.0837 68.8311" stroke="#6C8DAB" stroke-width="2" stroke-miterlimit="10" stroke-linecap="round" stroke-linejoin="round"/>
<path d="M75.2463 54.5526C75.2436 53.8211 74.6474 53.2309 73.9159 53.2358H73.9153C73.907 53.2358 73.8984 53.2358 73.89 53.2356C73.6363 53.2316 73.417 53.058 73.3484 52.8136C73.0536 51.7622 72.6142 50.7428 72.0316 49.7866C72.0978 49.6356 72.1919 49.4952 72.3141 49.3745C72.828 48.8677 72.8102 48.0178 72.2981 47.5092L70.1619 45.3878C69.6461 44.8756 68.8034 44.8634 68.2966 45.3845C68.2827 45.3991 68.2683 45.4131 68.2536 45.4269C68.0744 45.5948 67.8036 45.6183 67.5895 45.498C66.7164 45.0075 65.7963 44.6328 64.8508 44.3747C64.6055 44.3078 64.4302 44.0895 64.4244 43.8356C64.4242 43.8272 64.4241 43.8189 64.4241 43.8106V43.8102C64.4194 43.0773 63.8227 42.4866 63.0897 42.4891L60.0703 42.4997C59.34 42.5022 58.752 43.1003 58.7622 43.8305C58.7622 43.8389 58.7622 43.8472 58.762 43.8556C58.7581 44.1095 58.5842 44.3287 58.3397 44.3973C57.3959 44.6622 56.4781 45.0433 55.6084 45.5398C55.3953 45.6617 55.1245 45.6402 54.9441 45.4736C54.9295 45.46 54.915 45.4459 54.9008 45.4316C54.3903 44.9139 53.5478 44.932 53.0356 45.4478L50.9142 47.5839C50.4058 48.0961 50.3938 48.9461 50.9113 49.4494C50.9169 49.455 50.9227 49.4606 50.9283 49.4662C51.1119 49.6516 51.148 49.9362 51.0203 50.1636C50.5317 51.0344 50.1584 51.9522 49.9011 52.8952C49.8325 53.1466 49.6028 53.3203 49.3422 53.3217H49.3372H49.3366C48.6038 53.3266 48.013 53.9234 48.0156 54.6562L48.0259 57.6626C48.0286 58.3948 48.6242 58.9862 49.3564 58.9837H49.3569C49.3652 58.9836 49.3734 58.9837 49.3817 58.9839C49.6358 58.9878 49.8553 59.1617 49.9239 59.4062C50.1884 60.3491 50.5688 61.2658 51.0647 62.1345C51.1925 62.3583 51.1581 62.6389 50.9789 62.8239C50.972 62.8309 50.965 62.8381 50.958 62.8451C50.4441 63.3517 50.4622 64.2017 50.9741 64.7103L53.1103 66.8316C53.6263 67.3437 54.4688 67.3558 54.9758 66.8347C54.9897 66.8203 55.0041 66.8061 55.0188 66.7923C55.1978 66.6245 55.4684 66.6011 55.6827 66.7214C56.5558 67.212 57.4761 67.5866 58.4217 67.8448C58.6669 67.9117 58.842 68.1298 58.8478 68.3837C58.848 68.392 58.8481 68.4003 58.8481 68.4087V68.4094C58.8481 69.1408 59.4424 69.733 60.1739 69.7305L63.1758 69.7198C63.9102 69.7173 64.5055 69.1237 64.5102 68.3895V68.3889C64.51 68.3808 64.5102 68.3726 64.5103 68.3645C64.5141 68.1103 64.6884 67.8905 64.9333 67.8219C65.8766 67.5572 66.7939 67.1762 67.6631 66.6798C67.8769 66.5578 68.1481 66.5794 68.3288 66.7466C68.3431 66.7598 68.3572 66.7734 68.3711 66.7876C68.8819 67.3051 69.7244 67.2875 70.2366 66.7717L72.3581 64.6355C72.8666 64.1233 72.8784 63.2733 72.3611 62.77C72.2378 62.6503 72.1428 62.5105 72.0755 62.36C72.6516 61.3997 73.0836 60.3773 73.3713 59.3239C73.4381 59.0791 73.6561 58.9039 73.9099 58.8981C73.9183 58.898 73.9269 58.8978 73.9352 58.8978H73.9356C74.668 58.8951 75.2594 58.2995 75.2567 57.5673L75.2463 54.5526Z" stroke="#6C8DAB" stroke-width="2" stroke-miterlimit="10" stroke-linecap="round" stroke-linejoin="round"/>
<path d="M67.8588 56.1097C67.8588 59.4858 65.1219 62.2227 61.7458 62.2227C58.3698 62.2227 55.6328 59.4858 55.6328 56.1097C55.6328 52.7336 58.3698 49.9967 61.7458 49.9967C65.1219 49.9967 67.8588 52.7336 67.8588 56.1097Z" stroke="#6C8DAB" stroke-width="2" stroke-miterlimit="10" stroke-linecap="round" stroke-linejoin="round"/>
<path d="M68.2338 24.3311H55.4127C53.3553 24.3311 51.6875 22.6632 51.6875 20.6057C51.6875 18.5484 53.3553 16.8804 55.4127 16.8804H68.2338C70.2911 16.8804 71.9591 18.5484 71.9591 20.6057C71.9591 22.6632 70.2911 24.3311 68.2338 24.3311Z" stroke="#6C8DAB" stroke-width="2" stroke-miterlimit="10" stroke-linecap="round" stroke-linejoin="round"/>
<path d="M45.3927 34.6731L42.0443 31.5141C41.1765 30.6953 39.8095 30.7352 38.9905 31.603L37.1593 33.5442C36.3405 34.412 36.3802 35.7792 37.2482 36.598L40.4402 39.6094" stroke="#6C8DAB" stroke-width="2" stroke-miterlimit="10" stroke-linecap="round" stroke-linejoin="round"/>
<path d="M83.0541 39.4131L86.0384 36.5978C86.9061 35.779 86.9459 34.4118 86.1273 33.544L84.2958 31.6028C83.4772 30.735 82.11 30.6953 81.2422 31.5139L78.0547 34.5211" stroke="#6C8DAB" stroke-width="2" stroke-miterlimit="10" stroke-linecap="round" stroke-linejoin="round"/>
<path d="M66.5234 29.5098V24.3313" stroke="#6C8DAB" stroke-width="2" stroke-miterlimit="10" stroke-linecap="round" stroke-linejoin="round"/>
<path d="M57.1094 24.3313V29.5098" stroke="#6C8DAB" stroke-width="2" stroke-miterlimit="10" stroke-linecap="round" stroke-linejoin="round"/>
<path d="M22.8438 56.0234H34.8152" stroke="#6C8DAB" stroke-width="2" stroke-miterlimit="10" stroke-linecap="round" stroke-linejoin="round"/>
<path d="M35.46 50.1964H14.0853C12.4762 50.1964 11.1719 51.5009 11.1719 53.1098C11.1719 54.7191 12.4762 56.0234 14.0853 56.0234H23.5" stroke="#6C8DAB" stroke-width="2" stroke-miterlimit="10" stroke-linecap="round" stroke-linejoin="round"/>
<path d="M35.3131 61.3048H21.6558C20.0467 61.3048 18.7422 62.6092 18.7422 64.2182C18.7422 65.8275 20.0467 67.1318 21.6558 67.1318H37.157" stroke="#6C8DAB" stroke-width="2" stroke-miterlimit="10" stroke-linecap="round" stroke-linejoin="round"/>
<path d="M40.2867 72.4134H28.0463C26.4372 72.4134 25.1328 73.7177 25.1328 75.3268C25.1328 76.9359 26.4372 78.2402 28.0463 78.2402H46.3352" stroke="#6C8DAB" stroke-width="2" stroke-miterlimit="10" stroke-linecap="round" stroke-linejoin="round"/>
</g>
</svg>
