<svg width="100" height="100" viewBox="0 0 100 100" fill="none" xmlns="http://www.w3.org/2000/svg">
<mask id="mask0_2901_10797" style="mask-type:luminance" maskUnits="userSpaceOnUse" x="10" y="10" width="80" height="80">
<path d="M10 10H90V90H10V10Z" fill="white"/>
</mask>
<g mask="url(#mask0_2901_10797)">
<path d="M54.2931 71.9531C54.2931 63.4581 47.3584 56.5234 38.8634 56.5234H33.2978C33.2897 54.7884 33.2792 52.6177 33.2658 49.8828L18.4219 60.8203L33.2617 71.7578C33.2639 68.1545 33.2708 66.2053 33.2792 65.1172H38.8634C42.6145 65.1172 45.6994 68.202 45.6994 71.9531V88.4375H54.2931V26.4389L60.9337 26.4061L49.9963 11.5623L39.0588 26.4022L45.6994 26.4061V57.8048" stroke="#6C8DAB" stroke-width="2" stroke-miterlimit="22.926" stroke-linecap="round" stroke-linejoin="round"/>
<path d="M54.4128 39.8182C56.4462 38.828 58.727 38.2715 61.1328 38.2715H66.6986C66.7066 36.5366 66.717 34.3659 66.7306 31.6309L81.5744 42.5684L66.7345 53.506C66.7325 49.9027 66.7255 47.9534 66.717 46.8654H61.1328C57.3817 46.8654 54.2969 49.9501 54.2969 53.7012" stroke="#6C8DAB" stroke-width="2" stroke-miterlimit="22.926" stroke-linecap="round" stroke-linejoin="round"/>
</g>
</svg>
