<svg width="100" height="100" viewBox="0 0 100 100" fill="none" xmlns="http://www.w3.org/2000/svg">
<path d="M85.1391 45.5405V35.3503C85.1391 34.7963 84.5781 34.4183 84.0645 34.6263L69.5312 40.5111" stroke="#6C8DAB" stroke-width="2" stroke-miterlimit="10" stroke-linecap="round" stroke-linejoin="round"/>
<path d="M88.0469 45.8525H11.9531C11.5217 45.8525 11.1719 46.2024 11.1719 46.6338V51.0832C11.1719 51.5146 11.5217 51.8644 11.9531 51.8644H88.0469C88.4783 51.8644 88.8281 51.5146 88.8281 51.0832V46.6338C88.8281 46.2022 88.4783 45.8525 88.0469 45.8525Z" stroke="#6C8DAB" stroke-width="2" stroke-miterlimit="10" stroke-linecap="round" stroke-linejoin="round"/>
<path d="M29.0036 26.7529H17.1114C15.872 26.7529 14.8672 27.7578 14.8672 28.9971C14.8672 30.2367 15.872 31.2414 17.1114 31.2414H29.0037C30.2433 31.2414 31.248 30.2365 31.248 28.9971C31.248 27.7576 30.2431 26.7529 29.0036 26.7529Z" stroke="#6C8DAB" stroke-width="2" stroke-miterlimit="10" stroke-linecap="round" stroke-linejoin="round"/>
<path d="M30.4766 57.4688V60.5131" stroke="#6C8DAB" stroke-width="2" stroke-miterlimit="10" stroke-linecap="round" stroke-linejoin="round"/>
<path d="M40.2344 57.4688V60.5131" stroke="#6C8DAB" stroke-width="2" stroke-miterlimit="10" stroke-linecap="round" stroke-linejoin="round"/>
<path d="M50 57.4688V60.5131" stroke="#6C8DAB" stroke-width="2" stroke-miterlimit="10" stroke-linecap="round" stroke-linejoin="round"/>
<path d="M59.7656 57.4688V60.5131" stroke="#6C8DAB" stroke-width="2" stroke-miterlimit="10" stroke-linecap="round" stroke-linejoin="round"/>
<path d="M69.5312 57.4688V60.5131" stroke="#6C8DAB" stroke-width="2" stroke-miterlimit="10" stroke-linecap="round" stroke-linejoin="round"/>
<path d="M31.1328 66.8135V80.9814" stroke="#6C8DAB" stroke-width="2" stroke-miterlimit="10" stroke-linecap="round" stroke-linejoin="round"/>
<path d="M23.0547 26.7532V19.623" stroke="#6C8DAB" stroke-width="2" stroke-miterlimit="10" stroke-linecap="round" stroke-linejoin="round"/>
<path d="M21.0694 14.8366C19.4281 13.1954 17.1558 12.5716 15.0336 12.9626C14.7073 13.0227 14.4542 13.2757 14.3942 13.6019C14.0033 15.7241 14.627 17.9965 16.2684 19.6377C17.9097 21.279 20.1819 21.9027 22.304 21.5119C22.6303 21.4518 22.8834 21.1988 22.9434 20.8726C23.3343 18.7502 22.7106 16.478 21.0694 14.8366Z" stroke="#6C8DAB" stroke-width="2" stroke-miterlimit="10" stroke-linecap="round" stroke-linejoin="round"/>
<path d="M25.0417 14.8367C26.6829 13.1954 28.9551 12.5717 31.0775 12.9625C31.4037 13.0226 31.6568 13.2756 31.7168 13.6019C32.1078 15.724 31.484 17.9964 29.8428 19.6376C28.2015 21.2789 25.9294 21.9026 23.807 21.5117C23.4808 21.4515 23.2276 21.1986 23.1676 20.8723C22.7767 18.7503 23.4004 16.4781 25.0417 14.8367Z" stroke="#6C8DAB" stroke-width="2" stroke-miterlimit="10" stroke-linecap="round" stroke-linejoin="round"/>
<path d="M86.4844 81.1377H13.5156C12.2212 81.1377 11.1719 82.1871 11.1719 83.4814V86.3683C11.1719 86.7997 11.5217 87.1496 11.9531 87.1496H88.0469C88.4783 87.1496 88.8281 86.7997 88.8281 86.3683V83.4814C88.8281 82.1871 87.7788 81.1377 86.4844 81.1377Z" stroke="#6C8DAB" stroke-width="2" stroke-miterlimit="10" stroke-linecap="round" stroke-linejoin="round"/>
<path d="M56.3125 66.707V73.5063" stroke="#6C8DAB" stroke-width="2" stroke-miterlimit="10" stroke-linecap="round" stroke-linejoin="round"/>
<path d="M67.0547 66.707V73.5063" stroke="#6C8DAB" stroke-width="2" stroke-miterlimit="10" stroke-linecap="round" stroke-linejoin="round"/>
<path d="M85.1406 80.5127V52.4619" stroke="#6C8DAB" stroke-width="2" stroke-miterlimit="10" stroke-linecap="round" stroke-linejoin="round"/>
<path d="M14.8672 52.4619V80.5127" stroke="#6C8DAB" stroke-width="2" stroke-miterlimit="10" stroke-linecap="round" stroke-linejoin="round"/>
<path d="M53.1664 45.5405V35.3503C53.1664 34.7963 52.6055 34.4183 52.0919 34.6263L37.6677 40.4669C37.3727 40.5863 37.1797 40.8728 37.1797 41.1911V45.5406" stroke="#6C8DAB" stroke-width="2" stroke-miterlimit="10" stroke-linecap="round" stroke-linejoin="round"/>
<path d="M17.8677 31.8232L15 45.2311" stroke="#6C8DAB" stroke-width="2" stroke-miterlimit="10" stroke-linecap="round" stroke-linejoin="round"/>
<path d="M31.1177 45.2311L28.25 31.8232" stroke="#6C8DAB" stroke-width="2" stroke-miterlimit="10" stroke-linecap="round" stroke-linejoin="round"/>
<path d="M28.7052 36.2305H17.1875" stroke="#6C8DAB" stroke-width="2" stroke-miterlimit="10" stroke-linecap="round" stroke-linejoin="round"/>
<path d="M16.3906 40.21H29.5067" stroke="#6C8DAB" stroke-width="2" stroke-miterlimit="10" stroke-linecap="round" stroke-linejoin="round"/>
<path d="M64.5 36C62.6855 36.7347 53.7969 40.4086 53.7969 40.4086" stroke="#6C8DAB" stroke-width="2" stroke-miterlimit="10" stroke-linecap="round" stroke-linejoin="round"/>
<path d="M69.1512 45.5405V35.3503C69.1512 34.7963 68.5903 34.4183 68.0767 34.6263L63.5391 36.4636" stroke="#6C8DAB" stroke-width="2" stroke-miterlimit="10" stroke-linecap="round" stroke-linejoin="round"/>
<path d="M65 73.8194H46.3516C45.9202 73.8194 45.5703 73.4696 45.5703 73.0382V67.2822C45.5703 66.8507 45.9202 66.501 46.3516 66.501H77.025C77.4564 66.501 77.8063 66.8507 77.8063 67.2822V73.0382C77.8063 73.4696 77.4564 73.8194 77.025 73.8194H64.0288" stroke="#6C8DAB" stroke-width="2" stroke-miterlimit="10" stroke-linecap="round" stroke-linejoin="round"/>
<path d="M22.2031 76.0605V80.8254" stroke="#6C8DAB" stroke-width="2" stroke-miterlimit="10" stroke-linecap="round" stroke-linejoin="round"/>
<path d="M40.0567 80.8252V67.2822C40.0567 66.8507 39.7069 66.501 39.2755 66.501H22.9844C22.553 66.501 22.2031 66.8507 22.2031 67.2822V76.5" stroke="#6C8DAB" stroke-width="2" stroke-miterlimit="10" stroke-linecap="round" stroke-linejoin="round"/>
</svg>
