<svg width="100" height="100" viewBox="0 0 100 100" fill="none" xmlns="http://www.w3.org/2000/svg">
<mask id="mask0_2901_10661" style="mask-type:luminance" maskUnits="userSpaceOnUse" x="10" y="10" width="80" height="80">
<path d="M90 10H10V90H90V10Z" fill="white"/>
</mask>
<g mask="url(#mask0_2901_10661)">
<mask id="mask1_2901_10661" style="mask-type:luminance" maskUnits="userSpaceOnUse" x="10" y="10" width="80" height="80">
<path d="M10 10H90V90H10V10Z" fill="white"/>
</mask>
<g mask="url(#mask1_2901_10661)">
<path d="M28.6396 54.033L25.1337 57.5389L21.491 61.1816C21.1095 61.5632 20.4909 61.5632 20.1093 61.1816L11.458 52.5303C11.0765 52.1488 11.0765 51.5302 11.458 51.1488L16.8687 45.738L18.8023 43.8045L27.211 35.3956C27.5924 35.0142 28.211 35.0142 28.5926 35.3956L37.2438 44.047C37.6254 44.4286 37.6254 45.047 37.2438 45.4288L28.6396 54.033Z" stroke="#6C8DAB" stroke-width="2" stroke-miterlimit="10" stroke-linecap="round" stroke-linejoin="round"/>
<path d="M48.2969 67.331L60.4222 79.6221" stroke="#6C8DAB" stroke-width="2" stroke-miterlimit="10" stroke-linecap="round" stroke-linejoin="round"/>
<path d="M44.3984 70.8287L56.1458 82.7764" stroke="#6C8DAB" stroke-width="2" stroke-miterlimit="10" stroke-linecap="round" stroke-linejoin="round"/>
<path d="M50.9697 85.0342L40.7656 74.5282" stroke="#6C8DAB" stroke-width="2" stroke-miterlimit="10" stroke-linecap="round" stroke-linejoin="round"/>
<path d="M74.8645 57.5393L71.3586 54.0334L64.5932 47.2681L63.9692 47.8921L63.9693 47.8923C63.6551 48.201 63.3592 48.5256 63.0796 48.8051L63.08 48.8054C61.8303 50.0334 60.6851 50.9542 59.4565 50.9482C59.4565 50.9482 57.1257 50.9371 57.1075 50.9368L57.107 50.9371C55.4845 50.9292 53.854 51.514 53.8342 51.5214L41.8112 56.2321C38.9429 57.2904 39.8056 61.9098 43.4872 61.2962L48.7956 60.5783L64.8734 76.6562L71.1801 70.3587C74.5261 67.0189 71.6184 64.6025 74.3081 61.9164C74.3096 61.9147 76.415 59.8114 76.4153 59.8111L76.7757 59.4506L74.8645 57.5393Z" stroke="#6C8DAB" stroke-width="2" stroke-miterlimit="10" stroke-linecap="round" stroke-linejoin="round"/>
<path d="M63.722 79.2014C64.7459 78.1758 64.7392 76.5199 63.7139 75.496L48.7959 60.578L43.4875 61.2958C39.8059 61.9094 38.9433 57.2902 41.8114 56.2317L50.0252 53.0134L46.2158 51.5211C46.1959 51.5137 44.5655 50.9289 42.9428 50.9367L42.9425 50.9364C42.9242 50.9367 40.5934 50.948 40.5934 50.948C39.3648 50.9539 38.2197 50.033 36.97 48.805L36.9703 48.8047C36.6908 48.5251 36.3947 48.2008 36.0806 47.8919L36.0808 47.8917L35.4325 47.2434L28.643 54.033L25.1369 57.5389L23.25 59.4259L23.6347 59.8106C23.6348 59.8109 25.7403 61.9142 25.7419 61.9159C28.4316 64.602 25.5237 67.0185 28.8698 70.3583L36.7045 78.1814L36.6987 78.1872L45.4787 86.9672C46.5041 87.9926 48.1666 87.9927 49.1916 86.9676C50.2172 85.9419 50.2173 84.2793 49.1922 83.2541L52.5725 86.6341C53.5987 87.6607 55.2628 87.6608 56.2891 86.6344C57.3156 85.608 57.3155 83.9441 56.2891 82.9175L57.6939 84.3226C58.7202 85.349 60.3842 85.3491 61.4106 84.3227C62.437 83.2961 62.4369 81.6321 61.4108 80.6058L58.8259 78.021L60.0108 79.2044C61.0364 80.2283 62.698 80.2268 63.722 79.2014Z" stroke="#6C8DAB" stroke-width="2" stroke-miterlimit="10" stroke-linecap="round" stroke-linejoin="round"/>
<path d="M84.998 20.656C85.463 20.2028 85.2063 19.4133 84.564 19.3199L79.6016 18.5988C79.3466 18.5617 79.126 18.4016 79.0119 18.1703L76.7927 13.6738C76.5054 13.0916 75.6752 13.0916 75.388 13.6738L73.1688 18.1703C73.0547 18.4016 72.8341 18.5617 72.5791 18.5988L67.6168 19.3199C66.9743 19.4133 66.7179 20.2028 67.1827 20.656L70.7733 24.156C70.958 24.336 71.0424 24.5952 70.9986 24.8493L70.151 29.7916C70.0413 30.4314 70.7129 30.9194 71.2876 30.6172L75.7258 28.2838C75.9541 28.1639 76.2266 28.1639 76.4549 28.2838L80.8932 30.6172C81.4679 30.9194 82.1394 30.4314 82.0297 29.7916L81.1821 24.8493C81.1385 24.5952 81.2227 24.336 81.4074 24.156L84.998 20.656Z" stroke="#6C8DAB" stroke-width="2" stroke-miterlimit="10" stroke-linecap="round" stroke-linejoin="round"/>
<path d="M32.8184 20.656C33.2832 20.2028 33.0267 19.4133 32.3843 19.3199L27.422 18.5988C27.167 18.5617 26.9464 18.4016 26.8323 18.1703L24.6131 13.6738C24.3257 13.0916 23.4956 13.0916 23.2084 13.6738L20.9892 18.1703C20.875 18.4016 20.6545 18.5617 20.3995 18.5988L15.4372 19.3199C14.7947 19.4133 14.5381 20.2028 15.0031 20.656L18.5937 24.156C18.7784 24.336 18.8626 24.5952 18.819 24.8493L17.9714 29.7916C17.8617 30.4314 18.5332 30.9194 19.1078 30.6172L23.5462 28.2838C23.7745 28.1639 24.047 28.1639 24.2753 28.2838L28.7136 30.6172C29.2882 30.9194 29.9598 30.4314 29.85 29.7916L29.0025 24.8493C28.9589 24.5952 29.0431 24.336 29.2278 24.156L32.8184 20.656Z" stroke="#6C8DAB" stroke-width="2" stroke-miterlimit="10" stroke-linecap="round" stroke-linejoin="round"/>
<path d="M50 34L57.1694 38.2136C58.0272 38.6647 59.0301 37.9361 58.8662 36.9808L57.6007 29.6016C57.5355 29.2222 57.6613 28.835 57.9369 28.5664L63.2982 23.3405C63.9924 22.6638 63.6093 21.485 62.6501 21.3456L55.241 20.2691C54.8601 20.2138 54.5307 19.9744 54.3604 19.6292L51.0469 12.9155C50.618 12.0462 49.3785 12.0462 48.9494 12.9155L45.636 19.6292C45.4657 19.9744 45.1363 20.2138 44.7554 20.2691L37.3463 21.3456C36.3871 21.485 36.0041 22.6638 36.6982 23.3405L42.0594 28.5664C42.3351 28.835 42.4608 29.2222 42.3958 29.6016L41.1302 36.9808C40.9663 37.9361 41.9691 38.6647 42.8271 38.2136L49.5 34" stroke="#6C8DAB" stroke-width="2" stroke-miterlimit="10" stroke-linecap="round" stroke-linejoin="round"/>
<path d="M83.5 46.1079L72.7878 35.3957C72.4062 35.0141 71.7876 35.0141 71.4062 35.3957L62.7548 44.0469C62.3734 44.4285 62.3734 45.0469 62.7548 45.4286L71.3592 54.0329L74.8651 57.539L78.5078 61.1815C78.8893 61.5632 79.5079 61.5632 79.8895 61.1815L88.5407 52.5302C88.9223 52.1488 88.9223 51.5302 88.5407 51.1487L83.1301 45.7379L82.4875 45.0952" stroke="#6C8DAB" stroke-width="2" stroke-miterlimit="10" stroke-linecap="round" stroke-linejoin="round"/>
</g>
</g>
</svg>
