<svg width="100" height="100" viewBox="0 0 100 100" fill="none" xmlns="http://www.w3.org/2000/svg">
<mask id="mask0_2901_10693" style="mask-type:luminance" maskUnits="userSpaceOnUse" x="14" y="14" width="72" height="72">
<path d="M14 14H86V86H14V14Z" fill="white"/>
</mask>
<g mask="url(#mask0_2901_10693)">
<path d="M71.0938 50C71.0938 61.6498 61.6498 71.0938 50 71.0938C38.3502 71.0938 28.9062 61.6498 28.9062 50C28.9062 38.3502 38.3502 28.9062 50 28.9062C61.6498 28.9062 71.0938 38.3502 71.0938 50Z" stroke="#6C8DAB" stroke-width="1.8" stroke-miterlimit="10" stroke-linecap="round" stroke-linejoin="round"/>
<path d="M60.5469 43.6719L47.8906 56.3281L39.4531 47.8906" stroke="#6C8DAB" stroke-width="1.8" stroke-miterlimit="10" stroke-linecap="round" stroke-linejoin="round"/>
<path d="M47.2643 17.1166C48.841 15.7736 51.159 15.7736 52.7357 17.1166L58.2177 21.9548L67.4946 21.2369C69.5595 21.0772 71.435 22.4397 71.921 24.4529L73.7809 32.1557L81.8864 37.0076C83.6509 38.0921 84.3672 40.2968 83.5772 42.2111L80.375 49.9704L83.5772 57.7297C84.3672 59.6441 83.6509 61.8489 81.8864 62.9334L73.7809 67.7852L71.921 75.4881C71.435 77.5011 69.5595 78.8638 67.4946 78.704L58.3084 77.993L52.7357 82.8834C51.159 84.2264 48.841 84.2264 47.2643 82.8834L41.6916 77.993L32.5054 78.704C30.4405 78.8638 28.565 77.5011 28.079 75.4881L26.2116 67.7547L18.1197 62.9334C16.3552 61.8489 15.6388 59.6441 16.429 57.7297L19.631 49.9704L16.429 42.2111C15.6388 40.2968 16.3552 38.0921 18.1197 37.0076L25.518 32.6124L28.079 24.4529C28.565 22.4397 30.4405 21.0772 32.5054 21.2369L41.7824 21.9548L47.2643 17.1166Z" stroke="#6C8DAB" stroke-width="1.8" stroke-miterlimit="10" stroke-linecap="round" stroke-linejoin="round"/>
</g>
</svg>
