<svg width="100" height="100" viewBox="0 0 100 100" fill="none" xmlns="http://www.w3.org/2000/svg">
<mask id="mask0_2901_10721" style="mask-type:luminance" maskUnits="userSpaceOnUse" x="10" y="10" width="80" height="80">
<path d="M90 10H10V90H90V10Z" fill="white"/>
</mask>
<g mask="url(#mask0_2901_10721)">
<mask id="mask1_2901_10721" style="mask-type:luminance" maskUnits="userSpaceOnUse" x="10" y="10" width="80" height="80">
<path d="M10 10H90V90H10V10Z" fill="white"/>
</mask>
<g mask="url(#mask1_2901_10721)">
<path d="M69.1056 59.453L79.5739 49.0945C83.4841 45.1844 91.0037 50.1172 86.9409 54.8969L74.2648 69.81C73.7686 70.3939 73.1986 70.9111 72.5695 71.3489C70.5258 72.6547 68.092 73.0898 65.6944 73.0898H46.8836C45.5228 73.0898 44.1631 73.1686 42.8114 73.3259L37.4013 73.9336L26.1797 63.0439C26.1797 63.0439 32.5458 51.0223 45.033 54.4778C47.3686 55.1242 49.7855 55.4325 52.2087 55.4325H64.5719C70.3919 55.4325 70.4373 64.6797 64.5233 64.6797H53.7606" stroke="#6C8DAB" stroke-width="2" stroke-miterlimit="10" stroke-linecap="round" stroke-linejoin="round"/>
<path d="M30.0311 88.1035L40.7067 77.1507C40.7097 77.1476 40.7095 77.1427 40.7066 77.1399L22.5916 59.5607C22.5886 59.5577 22.5837 59.5579 22.5808 59.5609L11.8047 70.7482L30.0311 88.1035Z" stroke="#6C8DAB" stroke-width="2" stroke-miterlimit="10" stroke-linecap="round" stroke-linejoin="round"/>
<path d="M47.3672 64.6198L47.3822 64.6836" stroke="#6C8DAB" stroke-width="2" stroke-miterlimit="10" stroke-linecap="round" stroke-linejoin="round"/>
<path d="M24.6178 26.8864C21.2336 27.2068 18.5859 30.0564 18.5859 33.5244V40.6243C18.5859 41.8507 19.58 42.8447 20.8064 42.8447H36.0314C37.2578 42.8447 38.2519 41.8507 38.2519 40.6243V33.5244C38.2519 30.0538 35.6003 27.2025 32.2125 26.8857" stroke="#6C8DAB" stroke-width="2" stroke-miterlimit="10" stroke-linecap="round" stroke-linejoin="round"/>
<path d="M35.8694 20.454C35.8694 24.5687 32.5337 27.9043 28.4191 27.9043C24.3044 27.9043 20.9688 24.5687 20.9688 20.454C20.9688 16.3393 24.3044 13.0037 28.4191 13.0037C32.5337 13.0037 35.8694 16.3393 35.8694 20.454Z" stroke="#6C8DAB" stroke-width="2" stroke-miterlimit="10" stroke-linecap="round" stroke-linejoin="round"/>
<path d="M44.2819 26.8864C40.8977 27.2068 38.25 30.0564 38.25 33.5244V40.6243C38.25 41.8507 39.2441 42.8447 40.4705 42.8447H55.6955C56.9219 42.8447 57.9159 41.8507 57.9159 40.6243V33.5244C57.9159 30.0538 55.2644 27.2025 51.8766 26.8857" stroke="#6C8DAB" stroke-width="2" stroke-miterlimit="10" stroke-linecap="round" stroke-linejoin="round"/>
<path d="M55.5334 20.454C55.5334 24.5687 52.1978 27.9043 48.0831 27.9043C43.9684 27.9043 40.6328 24.5687 40.6328 20.454C40.6328 16.3393 43.9684 13.0037 48.0831 13.0037C52.1978 13.0037 55.5334 16.3393 55.5334 20.454Z" stroke="#6C8DAB" stroke-width="2" stroke-miterlimit="10" stroke-linecap="round" stroke-linejoin="round"/>
<path d="M63.9537 26.8864C60.5695 27.2068 57.9219 30.0564 57.9219 33.5244V40.6243C57.9219 41.8507 58.9159 42.8447 60.1423 42.8447H75.3673C76.5937 42.8447 77.5878 41.8507 77.5878 40.6243V33.5244C77.5878 30.0538 74.9362 27.2025 71.5484 26.8857" stroke="#6C8DAB" stroke-width="2" stroke-miterlimit="10" stroke-linecap="round" stroke-linejoin="round"/>
<path d="M75.1975 20.454C75.1975 24.5687 71.8619 27.9043 67.7472 27.9043C63.6325 27.9043 60.2969 24.5687 60.2969 20.454C60.2969 16.3393 63.6325 13.0037 67.7472 13.0037C71.8619 13.0037 75.1975 16.3393 75.1975 20.454Z" stroke="#6C8DAB" stroke-width="2" stroke-miterlimit="10" stroke-linecap="round" stroke-linejoin="round"/>
</g>
</g>
</svg>
