<svg width="100" height="100" viewBox="0 0 100 100" fill="none" xmlns="http://www.w3.org/2000/svg">
<path d="M64.4561 24.1738C64.2803 25.7474 64.4659 27.3534 65.013 28.8566L62.0781 31.7915" stroke="#6C8DAB" stroke-width="1.8" stroke-miterlimit="10" stroke-linecap="round" stroke-linejoin="round"/>
<path d="M66.1797 19.5391C66.5341 19.0201 66.9419 18.5266 67.4031 18.0653C69.9203 15.5481 73.4177 14.6101 76.6661 15.2486L72.543 19.3717L71.0622 24.8969L75.1066 28.9412L80.6317 27.4605L84.7548 23.3387C85.3947 26.5858 84.4553 30.0831 81.9395 32.6003C79.0216 35.5183 74.7859 36.3128 71.148 34.9881L68.237 37.8991" stroke="#6C8DAB" stroke-width="1.8" stroke-miterlimit="10" stroke-linecap="round" stroke-linejoin="round"/>
<path d="M31.744 62.124L28.8564 65.0116C25.2186 63.6868 20.9829 64.481 18.0648 67.3993C15.5481 69.9161 14.6097 73.4133 15.249 76.6616L19.3718 72.5384L24.897 71.0579L28.9416 75.1026L27.4613 80.6277L23.3383 84.7507C26.5864 85.39 30.0836 84.4516 32.6004 81.9348C35.5185 79.0167 36.3129 74.7811 34.9881 71.1433L37.9474 68.184" stroke="#6C8DAB" stroke-width="1.8" stroke-miterlimit="10" stroke-linecap="round" stroke-linejoin="round"/>
<path d="M42.0238 65.5668L39.3481 68.2424C39.0186 68.5718 38.4844 68.5718 38.1549 68.2424L31.7549 61.8424C31.4254 61.5129 31.4254 60.9786 31.7549 60.6492L34.4305 57.9736" stroke="#6C8DAB" stroke-width="1.8" stroke-miterlimit="10" stroke-linecap="round" stroke-linejoin="round"/>
<path d="M58 34.4119L60.654 31.7579C60.9835 31.4284 61.5177 31.4284 61.8472 31.7579L68.2472 38.1578C68.5767 38.4873 68.5767 39.0216 68.2472 39.351L65.6553 41.9429" stroke="#6C8DAB" stroke-width="1.8" stroke-miterlimit="10" stroke-linecap="round" stroke-linejoin="round"/>
<path d="M49.7925 60.1328L44.5019 65.4233C43.8531 66.0722 42.801 66.0722 42.1522 65.4233L34.5804 57.8515C33.9315 57.2027 33.9315 56.1507 34.5804 55.5018L39.9787 50.1035" stroke="#6C8DAB" stroke-width="1.8" stroke-miterlimit="10" stroke-linecap="round" stroke-linejoin="round"/>
<path d="M50.25 39.8356L55.5101 34.5755C56.1589 33.9267 57.2109 33.9267 57.8598 34.5755L65.4316 42.1473C66.0804 42.7962 66.0804 43.8482 65.4316 44.497L60.1715 49.7571" stroke="#6C8DAB" stroke-width="1.8" stroke-miterlimit="10" stroke-linecap="round" stroke-linejoin="round"/>
<path d="M31.5122 37.6419L29.4366 35.5663C28.3369 35.9671 27.1486 36.1864 25.9111 36.1864C20.2341 36.1864 15.6328 31.5852 15.6328 25.9082C15.6328 20.2325 20.2341 15.6299 25.9111 15.6299C29.4802 15.6299 32.6259 17.451 34.4681 20.2143" stroke="#6C8DAB" stroke-width="1.8" stroke-miterlimit="10" stroke-linecap="round" stroke-linejoin="round"/>
<path d="M36.1306 24.8633C36.1658 25.2064 36.1841 25.5552 36.1841 25.9081C36.1841 27.147 35.9647 28.3353 35.5625 29.435L37.8688 31.7412" stroke="#6C8DAB" stroke-width="1.8" stroke-miterlimit="10" stroke-linecap="round" stroke-linejoin="round"/>
<path d="M68.25 62.1162L70.5689 64.4337C71.6686 64.0329 72.8555 63.8136 74.0944 63.8136C79.77 63.8136 84.3727 68.4148 84.3727 74.0918C84.3727 76.3362 83.6541 78.4118 82.432 80.1021" stroke="#6C8DAB" stroke-width="1.8" stroke-miterlimit="10" stroke-linecap="round" stroke-linejoin="round"/>
<path d="M62.2656 68.3906L64.4397 70.5647C64.0389 71.6644 63.8195 72.8527 63.8195 74.0916C63.8195 79.7672 68.4208 84.3698 74.0978 84.3698C75.7403 84.3698 77.2942 83.9845 78.6709 83.2969" stroke="#6C8DAB" stroke-width="1.8" stroke-miterlimit="10" stroke-linecap="round" stroke-linejoin="round"/>
<path d="M24.3553 20.0977L20.1016 24.3513L21.6586 30.162L27.4692 31.7189L31.723 27.4653L30.166 21.6547L24.3553 20.0977Z" stroke="#6C8DAB" stroke-width="1.8" stroke-miterlimit="10" stroke-linecap="round" stroke-linejoin="round"/>
<path d="M72.5349 68.2803L68.2812 72.534L69.8382 78.3447L75.6489 79.9017L79.9025 75.6479L78.3456 69.8373L72.5349 68.2803Z" stroke="#6C8DAB" stroke-width="1.8" stroke-miterlimit="10" stroke-linecap="round" stroke-linejoin="round"/>
<path d="M65.7095 58.1172L68.2408 60.6484C68.5703 60.9779 68.5703 61.5122 68.2408 61.8416L61.8408 68.2416C61.5113 68.5711 60.9771 68.5711 60.6476 68.2416L58.0625 65.6565" stroke="#6C8DAB" stroke-width="1.8" stroke-miterlimit="10" stroke-linecap="round" stroke-linejoin="round"/>
<path d="M34.3468 41.9429L31.7549 39.351C31.4254 39.0216 31.4254 38.4873 31.7549 38.1578L38.1549 31.7579C38.4844 31.4284 39.0186 31.4284 39.3481 31.7579L41.8054 34.2153" stroke="#6C8DAB" stroke-width="1.8" stroke-miterlimit="10" stroke-linecap="round" stroke-linejoin="round"/>
<path d="M46.7409 56.6571L55.5074 65.4236C56.1571 66.0733 57.209 66.0733 57.8573 65.4236L65.4299 57.8524C66.0782 57.2041 66.0782 56.1508 65.4299 55.5025L44.5021 34.5761C43.8538 33.9264 42.802 33.9264 42.1523 34.5761L34.581 42.1474C33.9313 42.7957 33.9313 43.8489 34.581 44.4972L47.9362 57.8524" stroke="#6C8DAB" stroke-width="1.8" stroke-miterlimit="10" stroke-linecap="round" stroke-linejoin="round"/>
</svg>
