<svg width="1492" height="823" viewBox="0 0 1492 823" fill="none" xmlns="http://www.w3.org/2000/svg">
<mask id="mask0_3364_10609" style="mask-type:alpha" maskUnits="userSpaceOnUse" x="0" y="0" width="1492" height="823">
<mask id="path-1-inside-1_3364_10609" fill="white">
<path fill-rule="evenodd" clip-rule="evenodd" d="M1021.49 304.078C1052.39 338.817 1049.27 392.003 1014.51 422.887H1014.5L1014.65 423.05L683.633 717.154C601.648 789.991 496.18 826.573 386.666 820.15C277.151 813.727 176.691 765.065 103.793 683.14C30.9033 601.214 -5.70478 495.822 0.722839 386.387C7.15046 276.943 55.8389 176.564 137.832 103.718C219.817 30.881 325.277 -5.70067 434.799 0.722317C544.314 7.1453 644.774 55.7986 717.664 137.724L591.469 249.849C502.86 150.26 349.691 141.278 250.03 229.822C150.369 318.367 141.38 471.426 229.988 571.015C318.597 670.604 471.766 679.586 571.427 591.042L902.45 296.938L902.597 297.101C937.353 266.225 990.585 269.346 1021.49 304.078ZM1105.67 2.08364C1215.09 8.50656 1315.46 57.1675 1388.3 139.092L1388.29 139.1C1461.12 221.025 1497.7 326.417 1491.28 435.851C1484.86 545.293 1436.2 645.672 1354.29 718.516C1272.37 791.353 1166.99 827.934 1057.57 821.511C948.145 815.088 847.772 766.427 774.944 684.503L901.039 572.379C989.571 671.966 1142.61 680.949 1242.18 592.405C1341.76 503.862 1350.74 350.804 1262.21 251.216C1173.68 151.628 1020.64 142.646 921.063 231.19L590.325 525.291L589.869 524.777C555.33 555.49 502.445 552.384 471.736 517.841C441.036 483.297 444.133 430.406 478.672 399.693L478.216 399.18L808.954 105.079C890.868 32.242 996.246 -4.33928 1105.67 2.08364Z"/>
</mask>
<path d="M1014.51 422.887V423.887H1014.89L1015.17 423.634L1014.51 422.887ZM1021.49 304.078L1022.24 303.413L1022.24 303.413L1021.49 304.078ZM1014.5 422.887V421.887H1012.25L1013.76 423.556L1014.5 422.887ZM1014.65 423.05L1015.31 423.797L1016.06 423.128L1015.39 422.38L1014.65 423.05ZM683.633 717.154L684.297 717.902L684.297 717.901L683.633 717.154ZM386.666 820.15L386.724 819.152L386.724 819.152L386.666 820.15ZM103.793 683.14L103.046 683.805L103.046 683.805L103.793 683.14ZM0.722839 386.387L1.72112 386.445L1.72112 386.445L0.722839 386.387ZM137.832 103.718L137.168 102.971L137.168 102.971L137.832 103.718ZM434.799 0.722317L434.858 -0.275968L434.858 -0.275968L434.799 0.722317ZM717.664 137.724L718.328 138.472L719.076 137.807L718.411 137.06L717.664 137.724ZM591.469 249.849L590.722 250.514L591.386 251.261L592.133 250.597L591.469 249.849ZM250.03 229.822L249.366 229.075L249.366 229.075L250.03 229.822ZM229.988 571.015L229.241 571.679L229.241 571.679L229.988 571.015ZM571.427 591.042L572.091 591.789L572.091 591.789L571.427 591.042ZM902.45 296.938L903.193 296.268L902.528 295.531L901.786 296.19L902.45 296.938ZM902.597 297.101L901.854 297.77L902.519 298.508L903.261 297.848L902.597 297.101ZM1388.3 139.092L1389.01 139.796L1389.67 139.129L1389.04 138.428L1388.3 139.092ZM1105.67 2.08364L1105.61 3.08192L1105.61 3.08192L1105.67 2.08364ZM1388.29 139.1L1387.58 138.397L1386.92 139.063L1387.54 139.765L1388.29 139.1ZM1491.28 435.851L1490.28 435.792L1490.28 435.792L1491.28 435.851ZM1354.29 718.516L1354.95 719.264L1354.95 719.264L1354.29 718.516ZM1057.57 821.511L1057.63 820.513L1057.63 820.513L1057.57 821.511ZM774.944 684.503L774.28 683.755L773.533 684.42L774.197 685.167L774.944 684.503ZM901.039 572.379L901.787 571.714L901.122 570.967L900.375 571.631L901.039 572.379ZM1242.18 592.405L1242.85 593.153L1242.85 593.153L1242.18 592.405ZM921.063 231.19L920.399 230.442L920.399 230.442L921.063 231.19ZM590.325 525.291L589.578 525.955L590.242 526.703L590.99 526.038L590.325 525.291ZM589.869 524.777L590.616 524.113L589.952 523.365L589.204 524.03L589.869 524.777ZM471.736 517.841L470.989 518.505L470.989 518.505L471.736 517.841ZM478.672 399.693L479.336 400.441L480.084 399.776L479.419 399.029L478.672 399.693ZM478.216 399.18L477.551 398.433L476.804 399.097L477.468 399.844L478.216 399.18ZM808.954 105.079L808.289 104.331L808.289 104.331L808.954 105.079ZM1014.51 422.887L1015.17 423.634C1050.34 392.383 1053.5 338.566 1022.24 303.413L1021.49 304.078L1020.74 304.742C1051.28 339.069 1048.19 391.622 1013.84 422.139L1014.51 422.887ZM1014.5 422.887V423.887H1014.51V422.887V421.887H1014.5V422.887ZM1014.65 423.05L1015.39 422.38L1015.24 422.217L1014.5 422.887L1013.76 423.556L1013.9 423.719L1014.65 423.05ZM683.633 717.154L684.297 717.901L1015.31 423.797L1014.65 423.05L1013.98 422.302L682.969 716.406L683.633 717.154ZM386.666 820.15L386.607 821.148C496.386 827.587 602.114 790.915 684.297 717.902L683.633 717.154L682.969 716.406C601.182 789.068 495.974 825.559 386.724 819.152L386.666 820.15ZM103.793 683.14L103.046 683.805C176.12 765.928 276.828 814.71 386.607 821.148L386.666 820.15L386.724 819.152C277.475 812.744 177.262 764.203 104.54 682.475L103.793 683.14ZM0.722839 386.387L-0.275441 386.328C-6.71863 496.028 29.9799 601.681 103.046 683.805L103.793 683.14L104.54 682.475C31.8267 600.748 -4.69094 495.615 1.72112 386.445L0.722839 386.387ZM137.832 103.718L137.168 102.971C54.9764 175.992 6.16775 276.62 -0.275441 386.328L0.722839 386.387L1.72112 386.445C8.13318 277.267 56.7013 177.135 138.496 104.466L137.832 103.718ZM434.799 0.722317L434.858 -0.275968C325.071 -6.71447 219.351 29.9573 137.168 102.971L137.832 103.718L138.496 104.466C220.283 31.8047 325.483 -4.68687 434.741 1.7206L434.799 0.722317ZM717.664 137.724L718.411 137.06C645.345 54.9357 544.637 6.16253 434.858 -0.275968L434.799 0.722317L434.741 1.7206C543.991 8.12807 644.203 56.6615 716.917 138.389L717.664 137.724ZM591.469 249.849L592.133 250.597L718.328 138.472L717.664 137.724L717 136.977L590.804 249.102L591.469 249.849ZM250.03 229.822L250.694 230.57C349.942 142.392 502.48 151.338 590.722 250.514L591.469 249.849L592.216 249.185C503.241 149.183 349.439 140.164 249.366 229.075L250.03 229.822ZM229.988 571.015L230.735 570.35C142.495 471.174 151.446 318.747 250.694 230.57L250.03 229.822L249.366 229.075C149.292 317.986 140.266 471.678 229.241 571.679L229.988 571.015ZM571.427 591.042L570.763 590.294C471.515 678.472 318.977 669.526 230.735 570.35L229.988 571.015L229.241 571.679C318.216 671.681 472.018 680.7 572.091 591.789L571.427 591.042ZM902.45 296.938L901.786 296.19L570.763 590.294L571.427 591.042L572.091 591.789L903.114 297.685L902.45 296.938ZM902.597 297.101L903.34 296.431L903.193 296.268L902.45 296.938L901.707 297.607L901.854 297.77L902.597 297.101ZM1021.49 304.078L1022.24 303.413C990.965 268.269 937.102 265.111 901.933 296.353L902.597 297.101L903.261 297.848C937.605 267.339 990.205 270.424 1020.74 304.743L1021.49 304.078ZM1388.3 139.092L1389.04 138.428C1316.03 56.3049 1215.42 7.52382 1105.72 1.08536L1105.67 2.08364L1105.61 3.08192C1214.77 9.48929 1314.89 58.0301 1387.55 139.757L1388.3 139.092ZM1388.29 139.1L1389 139.804L1389.01 139.796L1388.3 139.092L1387.59 138.389L1387.58 138.397L1388.29 139.1ZM1491.28 435.851L1492.28 435.909C1498.71 326.21 1462.05 220.559 1389.04 138.436L1388.29 139.1L1387.54 139.765C1460.2 221.492 1496.69 326.623 1490.28 435.792L1491.28 435.851ZM1354.29 718.516L1354.95 719.264C1437.06 646.243 1485.84 545.616 1492.28 435.909L1491.28 435.851L1490.28 435.792C1483.87 544.97 1435.34 645.101 1353.62 717.769L1354.29 718.516ZM1057.57 821.511L1057.52 822.51C1167.2 828.948 1272.84 792.276 1354.95 719.264L1354.29 718.516L1353.62 717.769C1271.91 790.429 1166.79 826.92 1057.63 820.513L1057.57 821.511ZM774.944 684.503L774.197 685.167C847.2 767.29 947.822 816.071 1057.52 822.51L1057.57 821.511L1057.63 820.513C948.469 814.106 848.343 765.565 775.692 683.838L774.944 684.503ZM901.039 572.379L900.375 571.631L774.28 683.755L774.944 684.503L775.609 685.25L901.704 573.126L901.039 572.379ZM1242.18 592.405L1241.52 591.658C1142.36 679.834 989.952 670.889 901.787 571.714L901.039 572.379L900.292 573.043C989.191 673.044 1142.86 682.063 1242.85 593.153L1242.18 592.405ZM1262.21 251.216L1261.46 251.881C1349.63 351.056 1340.68 503.482 1241.52 591.658L1242.18 592.405L1242.85 593.153C1342.84 504.242 1351.86 350.552 1262.96 250.552L1262.21 251.216ZM921.063 231.19L921.728 231.937C1020.89 143.76 1173.3 152.706 1261.46 251.881L1262.21 251.216L1262.96 250.552C1174.06 150.551 1020.39 141.532 920.399 230.442L921.063 231.19ZM590.325 525.291L590.99 526.038L921.728 231.937L921.063 231.19L920.399 230.442L589.661 524.543L590.325 525.291ZM589.869 524.777L589.121 525.442L589.578 525.955L590.325 525.291L591.073 524.626L590.616 524.113L589.869 524.777ZM471.736 517.841L470.989 518.505C502.065 553.462 555.581 556.604 590.533 525.525L589.869 524.777L589.204 524.03C555.078 554.376 502.826 551.307 472.484 517.176L471.736 517.841ZM478.672 399.693L478.007 398.946C443.055 430.026 439.922 483.549 470.989 518.505L471.736 517.841L472.484 517.177C442.15 483.046 445.21 430.786 479.336 400.441L478.672 399.693ZM478.216 399.18L477.468 399.844L477.924 400.358L478.672 399.693L479.419 399.029L478.963 398.516L478.216 399.18ZM808.954 105.079L808.289 104.331L477.551 398.433L478.216 399.18L478.88 399.927L809.618 105.826L808.954 105.079ZM1105.67 2.08364L1105.72 1.08536C996.04 -5.35311 890.402 31.3185 808.289 104.331L808.954 105.079L809.618 105.826C891.334 33.1655 996.452 -3.32546 1105.61 3.08192L1105.67 2.08364Z" fill="black" mask="url(#path-1-inside-1_3364_10609)"/>
</mask>
<g mask="url(#mask0_3364_10609)">
<circle cx="746" cy="417.117" r="869" fill="url(#paint0_radial_3364_10609)"/>
<circle cx="1053" cy="411.117" r="439" fill="url(#paint1_radial_3364_10609)"/>
</g>
<defs>
<radialGradient id="paint0_radial_3364_10609" cx="0" cy="0" r="1" gradientUnits="userSpaceOnUse" gradientTransform="translate(746 417.117) rotate(90) scale(869)">
<stop stop-color="white" stop-opacity="0"/>
<stop offset="1" stop-color="white" stop-opacity="0.1"/>
</radialGradient>
<radialGradient id="paint1_radial_3364_10609" cx="0" cy="0" r="1" gradientUnits="userSpaceOnUse" gradientTransform="translate(1053 411.117) rotate(90) scale(221.5)">
<stop offset="0.75" stop-color="white" stop-opacity="0.4"/>
<stop offset="1" stop-color="white" stop-opacity="0.1"/>
</radialGradient>
</defs>
</svg>
