<svg width="40" height="40" viewBox="0 0 40 40" fill="none" xmlns="http://www.w3.org/2000/svg">
<path d="M35.1811 35.3272H28.6803C28.2205 35.3272 27.8488 34.9556 27.8488 34.4958V24.0265C27.8488 20.4359 25.9969 20.4359 25.3858 20.4359C23.7417 20.4359 23.0425 21.7336 22.8158 22.2942C22.7087 22.5462 22.6582 22.9745 22.6582 23.573V34.5021C22.6582 34.962 22.2866 35.3336 21.8268 35.3336H15.3197C15.0993 35.3336 14.8851 35.2454 14.7276 35.088C14.5701 34.9305 14.4819 34.7162 14.4882 34.4958C14.4882 34.3194 14.5764 16.7635 14.4882 14.9683C14.4756 14.7415 14.5575 14.521 14.715 14.3572C14.8725 14.1934 15.0867 14.0989 15.3197 14.0989H21.8268C22.2866 14.0989 22.6583 14.4706 22.6583 14.9304V15.4217C23.7543 14.4454 25.3354 13.6391 27.6913 13.6391C32.9008 13.6391 36.0126 17.2422 36.0126 23.2768V34.4958C36.0126 34.9556 35.6409 35.3272 35.1811 35.3272ZM29.5118 33.6643L34.3559 33.6642V23.2768C34.3559 18.2059 31.9307 15.302 27.6977 15.302C24.8693 15.302 23.4961 16.713 22.6331 18.0043C22.5323 18.3445 22.211 18.5965 21.8331 18.5965H21.789C21.4866 18.5965 21.2095 18.4327 21.0646 18.1682C20.9512 17.9602 20.926 17.7209 21.0016 17.5004V15.7556H16.1701C16.2142 19.2264 16.1701 30.458 16.1575 33.658H20.9953V23.5666C20.9953 22.7288 21.0835 22.1241 21.2725 21.6643C22.0032 19.8564 23.5402 18.7666 25.3796 18.7666C28 18.7666 29.5055 20.6816 29.5055 24.0202V33.6643H29.5119L29.5118 33.6643ZM11.7229 35.3271H5.21578C4.75594 35.3271 4.38431 34.9555 4.38431 34.4956V14.9303C4.38431 14.4705 4.75594 14.0988 5.21578 14.0988H11.7229C12.1827 14.0988 12.5543 14.4705 12.5543 14.9303V34.4957C12.5543 34.9555 12.1827 35.3272 11.7229 35.3272V35.3271ZM6.04731 33.6642H10.8914V15.7618H6.04734L6.04731 33.6642ZM8.47247 13.0909L8.42834 13.0909C5.86456 13.0909 4 11.3145 4 8.87044C4 6.43266 5.89606 4.65625 8.51653 4.65625C11.0929 4.65625 12.9323 6.38222 12.9827 8.85153C12.9827 11.3145 11.0867 13.0909 8.47247 13.0909ZM8.51653 6.32556C6.80944 6.32556 5.663 7.35234 5.663 8.87678C5.663 10.376 6.79688 11.4279 8.42838 11.4279H8.47244C10.1733 11.4279 11.3197 10.4012 11.3197 8.87675C11.2882 7.33344 10.1858 6.32556 8.51653 6.32556Z" fill="#6F6F70"/>
</svg>
