<svg width="37" height="37" viewBox="0 0 37 37" fill="none" xmlns="http://www.w3.org/2000/svg">
<path d="M18.499 3.70117H18.4916C10.3313 3.70117 3.69531 10.339 3.69531 18.5012C3.69531 21.7387 4.73871 24.7394 6.51286 27.1758L4.66841 32.674L10.3572 30.8555C12.6974 32.4058 15.4891 33.3012 18.499 33.3012C26.6594 33.3012 33.2953 26.6615 33.2953 18.5012C33.2953 10.3408 26.6594 3.70117 18.499 3.70117ZM27.1108 24.6006C26.7537 25.6089 25.3366 26.4451 24.2063 26.6893C23.433 26.8539 22.4229 26.9853 19.0226 25.5756C14.6732 23.7737 11.8723 19.354 11.654 19.0673C11.445 18.7805 9.89651 16.727 9.89651 14.6032C9.89651 12.4794 10.9751 11.4453 11.4098 11.0013C11.7669 10.6368 12.357 10.4703 12.9231 10.4703C13.1063 10.4703 13.2709 10.4796 13.4189 10.487C13.8537 10.5055 14.072 10.5314 14.3587 11.2177C14.7158 12.078 15.5853 14.2018 15.6889 14.4201C15.7943 14.6384 15.8998 14.9344 15.7518 15.2211C15.613 15.5171 15.4909 15.6485 15.2726 15.9001C15.0543 16.1517 14.8471 16.3441 14.6288 16.6142C14.429 16.8491 14.2033 17.1007 14.4549 17.5355C14.7065 17.961 15.576 19.3799 16.8562 20.5195C18.5083 21.9903 19.8477 22.4602 20.3268 22.66C20.6839 22.808 21.1094 22.7728 21.3702 22.4953C21.7014 22.1383 22.1102 21.5463 22.5265 20.9635C22.8225 20.5454 23.1962 20.4936 23.5884 20.6416C23.988 20.7804 26.1025 21.8256 26.5373 22.0421C26.972 22.2604 27.2588 22.364 27.3642 22.5471C27.4678 22.7303 27.4678 23.5905 27.1108 24.6006Z" fill="#6C8DAB"/>
</svg>
